<svg width="36" height="36" xmlns="http://www.w3.org/2000/svg">
    <g>
        <path d="m31.729624,21.922979c0.007364,-1.365167 -1.116897,-2.465748 -2.488546,-2.475266l-3.268174,0.000895l-0.025503,-6.486645l3.268174,-0.000895c1.371649,0.009518 2.463594,-1.110415 2.479594,-2.47991c0.007364,-1.365167 -1.116897,-2.465748 -2.488546,-2.475266l-3.268174,0.000895l-0.005324,-3.384814c0.007364,-1.365167 -1.116897,-2.465748 -2.488546,-2.475266c-1.371649,-0.009518 -2.463594,1.110415 -2.479594,2.47991l0.005324,3.384814l-6.726426,0.010607l-0.005324,-3.384814c0.007364,-1.365167 -1.116897,-2.465748 -2.488546,-2.475266c-1.371649,-0.009518 -2.463594,1.110415 -2.479594,2.47991l0.005324,3.384814l-3.259538,-0.003434c-1.371649,-0.009518 -2.463594,1.110415 -2.479594,2.47991c0.011779,1.047619 0.72114,1.967143 1.648135,2.318367c0.41925,0.211294 0.812328,0.154765 4.102103,0.153851l0.025503,6.486645l-3.268174,0.000895c-1.365167,-0.007364 -2.465748,1.116897 -2.479594,2.47991c0.011779,1.047619 0.72114,1.967143 1.648135,2.318367c0.41925,0.211294 0.812328,0.154765 4.102103,0.153851l0.005324,3.384814c0.018423,1.222578 0.976443,2.411878 2.488546,2.475266c1.371649,0.009518 2.463594,-1.110415 2.479594,-2.47991l-0.005324,-3.384814l6.741544,-0.012781l0.005324,3.384814c0.018423,1.222578 0.976443,2.411878 2.488546,2.475266c1.371649,0.009518 2.463594,-1.110415 2.479594,-2.47991l-0.005324,-3.384814l3.268174,-0.000895c1.360859,0.020329 2.46144,-1.103933 2.468804,-2.469099zm-17.487965,-2.413726l-0.021195,-6.499609l6.735062,-0.014935l0.021195,6.499609l-6.735062,0.014935z"
              fill="#ffffff"/>
        <path d="m13.401813,25.865762c0.951799,1.047827 1.064291,3.14371 0.24387,4.543654c-0.517337,0.882772 -5.48437,5.46806 -5.636246,5.203071c-0.049571,-0.086489 -0.139827,-1.684333 -0.200569,-3.550766c-0.097303,-2.989829 -0.055951,-3.522134 0.34762,-4.474762c0.818022,-1.930938 2.745367,-2.979955 4.241523,-2.308582c0.436599,0.195917 0.88831,0.46024 1.003803,0.587384l0,0zm-1.596996,0.46894c-0.145073,0.233394 -0.105227,0.394074 0.121554,0.490147c0.516856,0.218961 0.892959,1.327291 0.731263,2.154938c-0.172486,0.882875 0.239729,1.171196 0.628569,0.439648c0.749156,-1.40943 -0.676911,-4.378969 -1.481385,-3.084733l0,0z"
              fill="#ffffff"/>
        <path d="m26.634068,25.135983c0.997237,1.09785 1.1151,3.293788 0.255512,4.760565c-0.542034,0.924914 -5.746189,5.7291 -5.905316,5.451462c-0.051937,-0.090618 -0.146502,-1.764742 -0.210144,-3.720277c-0.101948,-3.13256 -0.058622,-3.690278 0.364216,-4.688384c0.857074,-2.023119 2.876428,-3.122216 4.444009,-2.418791c0.457442,0.205271 0.930718,0.482212 1.051723,0.615426l0,0zm-1.673235,0.491327c-0.151999,0.244537 -0.11025,0.412887 0.127356,0.513547c0.54153,0.229414 0.935589,1.390655 0.766173,2.257813c-0.180721,0.925022 0.251173,1.227108 0.658576,0.460636c0.78492,-1.476715 -0.709226,-4.588017 -1.552105,-3.231996l-0.000001,0z"
              fill="#ffffff"/>
        <path d="m21.18293,5.048344c-0.150945,-1.081367 0.688462,-2.465651 1.819746,-3.000984c0.71336,-0.337568 5.871313,-1.099898 5.85289,-0.865041c-0.006013,0.076654 -0.64309,1.13395 -1.415727,2.349545c-1.237683,1.947256 -1.495423,2.268437 -2.166665,2.699968c-1.360579,0.874695 -3.044588,0.705256 -3.706011,-0.372886c-0.193012,-0.314618 -0.365917,-0.67939 -0.384233,-0.810603l0,0zm1.221368,0.395431c0.19389,-0.085643 0.238349,-0.205341 0.13562,-0.365135c-0.234131,-0.364188 0.008028,-1.233849 0.47083,-1.690891c0.493685,-0.487541 0.356377,-0.850433 -0.209375,-0.553359c-1.090002,0.572355 -1.472247,3.084298 -0.397075,2.609385l0,0z"
              fill="#ffffff"/>
        <path d="m13.264505,6.036925c-0.939511,0.658711 -2.636367,0.535793 -3.678608,-0.266476c-0.657211,-0.505891 -3.838782,-4.966952 -3.61023,-5.062106c0.074597,-0.031057 1.368693,0.059039 2.875768,0.200212c2.414176,0.226145 2.83802,0.313591 3.562989,0.735109c1.469481,0.854399 2.116828,2.511072 1.424621,3.645854c-0.201997,0.331145 -0.46054,0.667479 -0.574542,0.747407l0,0zm-0.214509,-1.331966c-0.172915,-0.140423 -0.306182,-0.124739 -0.406527,0.047845c-0.228698,0.393338 -1.158252,0.582944 -1.807342,0.368654c-0.692402,-0.228589 -0.966223,0.07354 -0.417537,0.460704c1.057122,0.745926 3.590263,-0.098521 2.631406,-0.877203l0,0z"
              fill="#ffffff"/>
    </g>
</svg>