<svg width="100" height="100" xmlns="http://www.w3.org/2000/svg">
	<g>
		<path fill="#ffffff" d="m97.29998,50.13228c0,-6.26682 -7.84798,-12.20583 -19.88027,-15.88879c2.77668,-12.26368 1.5426,-22.02062 -3.89507,-25.14439c-1.25336,-0.73274 -2.71883,-1.07982 -4.31928,-1.07982l0,4.3c0.887,0 1.60045,0.17354 2.19821,0.50135c2.62242,1.50404 3.76009,7.23094 2.87309,14.59686c-0.21211,1.81256 -0.55919,3.72152 -0.98341,5.66906c-3.77937,-0.92556 -7.90583,-1.63901 -12.24439,-2.10179c-2.60314,-3.56726 -5.30269,-6.80673 -8.02152,-9.64125c6.2861,-5.8426 12.18655,-9.0435 16.19731,-9.0435l0,-4.3c0,0 0,0 0,0c-5.30269,0 -12.24439,3.77937 -19.26323,10.33542c-7.01883,-6.51749 -13.96054,-10.25829 -19.26323,-10.25829l0,4.3c3.99148,0 9.91121,3.18161 16.19731,8.98565c-2.69955,2.83453 -5.3991,6.05471 -7.96368,9.62197c-4.35785,0.46278 -8.4843,1.17623 -12.26368,2.12108c-0.4435,-1.92825 -0.7713,-3.79865 -1.00269,-5.59193c-0.90628,-7.36592 0.21211,-13.09282 2.81525,-14.61614c0.57848,-0.34709 1.33049,-0.50135 2.21749,-0.50135l0,-4.3c0,0 0,0 0,0c-1.61973,0 -3.0852,0.34709 -4.35785,1.07982c-5.41838,3.12377 -6.63318,12.86143 -3.83722,25.08654c-11.99372,3.70224 -19.80314,9.62197 -19.80314,15.8695c0,6.26682 7.84798,12.20583 19.88027,15.88879c-2.77668,12.26368 -1.5426,22.02062 3.89507,25.14439c1.25336,0.73274 2.71883,1.07982 4.33856,1.07982c5.30269,0 12.24439,-3.77937 19.26323,-10.33542c7.01883,6.51749 13.96054,10.25829 19.26323,10.25829c1.61973,0 3.0852,-0.34709 4.35785,-1.07982c5.41838,-3.12377 6.63318,-12.86143 3.83722,-25.08654c11.95516,-3.68296 19.76457,-9.62197 19.76457,-15.8695zm-25.10583,-12.86143c-0.71345,2.48744 -1.60045,5.05202 -2.60314,7.61659c-0.79058,-1.5426 -1.61973,-3.0852 -2.52601,-4.6278c-0.887,-1.5426 -1.83184,-3.04664 -2.77668,-4.51211c2.73812,0.40493 5.37982,0.90628 7.90583,1.52332zm-8.83139,20.53587c-1.50404,2.60314 -3.04664,5.0713 -4.64708,7.36592c-2.87309,0.25067 -5.78475,0.38565 -8.71569,0.38565c-2.91166,0 -5.82332,-0.13498 -8.67713,-0.36637c-1.60045,-2.29462 -3.16233,-4.7435 -4.66637,-7.32735c-1.46547,-2.52601 -2.79596,-5.09058 -4.01076,-7.67444c1.19552,-2.58386 2.54529,-5.16771 3.99148,-7.69372c1.50404,-2.60314 3.04664,-5.0713 4.64708,-7.36592c2.87309,-0.25067 5.78475,-0.38565 8.71569,-0.38565c2.91166,0 5.82332,0.13498 8.67713,0.36637c1.60045,2.29462 3.16233,4.7435 4.66637,7.32735c1.46547,2.52601 2.79596,5.09058 4.01076,7.67444c-1.2148,2.58386 -2.54529,5.16771 -3.99148,7.69372zm6.22825,-2.50673c1.04126,2.58386 1.92825,5.16771 2.66099,7.67444c-2.52601,0.61704 -5.18699,1.13767 -7.94439,1.5426c0.94484,-1.48475 1.88969,-3.00807 2.77668,-4.56995c0.887,-1.5426 1.71614,-3.10448 2.50673,-4.64708zm-19.55246,20.57444c-1.79327,-1.85112 -3.58655,-3.91435 -5.36054,-6.1704c1.73543,0.07713 3.50942,0.13498 5.30269,0.13498c1.81256,0 3.60583,-0.03857 5.36054,-0.13498c-1.73543,2.25605 -3.5287,4.31928 -5.30269,6.1704zm-14.34619,-11.3574c-2.73812,-0.40493 -5.37982,-0.90628 -7.90583,-1.52332c0.71345,-2.48744 1.60045,-5.05202 2.60314,-7.61659c0.79058,1.5426 1.61973,3.0852 2.52601,4.6278c0.90628,1.5426 1.83184,3.04664 2.77668,4.51211zm14.24977,-40.1269c1.79327,1.85112 3.58655,3.91435 5.36054,6.1704c-1.73543,-0.07713 -3.50942,-0.13498 -5.30269,-0.13498c-1.81256,0 -3.60583,0.03857 -5.36054,0.13498c1.73543,-2.25605 3.5287,-4.31928 5.30269,-6.1704zm-14.26906,11.3574c-0.94484,1.48475 -1.88969,3.00807 -2.77668,4.56995c-0.887,1.5426 -1.71614,3.0852 -2.50673,4.6278c-1.04126,-2.58386 -1.92825,-5.16771 -2.66099,-7.67444c2.52601,-0.59776 5.18699,-1.11839 7.94439,-1.52332zm-17.45067,24.1417c-6.82601,-2.91166 -11.2417,-6.7296 -11.2417,-9.75695c0,-3.02735 4.41569,-6.86457 11.2417,-9.75695c1.6583,-0.71345 3.47085,-1.34978 5.34125,-1.94753c1.0991,3.77937 2.54529,7.713 4.33856,11.74305c-1.77399,4.01076 -3.2009,7.92511 -4.28072,11.6852c-1.90897,-0.59776 -3.72152,-1.25336 -5.3991,-1.96682zm10.37399,27.5547c-2.62242,-1.50404 -3.76009,-7.23094 -2.87309,-14.59686c0.21211,-1.81256 0.55919,-3.72152 0.98341,-5.66906c3.77937,0.92556 7.90583,1.63901 12.24439,2.10179c2.60314,3.56726 5.30269,6.80673 8.02152,9.64125c-6.2861,5.8426 -12.18655,9.0435 -16.19731,9.0435c-0.86771,-0.01928 -1.60045,-0.19283 -2.17892,-0.52063zm45.73811,-14.69327c0.90628,7.36592 -0.21211,13.09282 -2.81525,14.61614c-0.57848,0.34709 -1.33049,0.50135 -2.21749,0.50135c-3.99148,0 -9.91121,-3.18161 -16.19731,-8.98565c2.69955,-2.83453 5.3991,-6.05471 7.96368,-9.62197c4.35785,-0.46278 8.4843,-1.17623 12.26368,-2.12108c0.4435,1.94753 0.79058,3.81794 1.00269,5.61121zm7.42377,-12.86143c-1.6583,0.71345 -3.47085,1.34978 -5.34125,1.94753c-1.0991,-3.77937 -2.54529,-7.713 -4.33856,-11.74305c1.77399,-4.01076 3.2009,-7.92511 4.28072,-11.6852c1.90897,0.59776 3.72152,1.25336 5.41838,1.96682c6.82601,2.91166 11.2417,6.7296 11.2417,9.75695c-0.01928,3.02735 -4.43498,6.86457 -11.26098,9.75695z"/>
		<polygon fill="#ffffff" points="30.67891502380371,8.077130317687988 30.67891502380371,8.077130317687988 30.67891502380371,8.077130317687988 "/>
		<circle fill="#ffffff" r="8.81211" cy="50.13228" cx="49.98071"/>
		<polygon fill="#ffffff" points="69.18608856201172,8.019282341003418 69.18608856201172,8.019282341003418 69.18608856201172,8.019282341003418 "/>
	</g>
</svg>
